# xmcd
#
# Track frame offsets:
#	150
#	13679
#	29259
#	49467
#	73221
#	108635
#	126522
#	151621
#	171374
#	185870
#	215794
#	232429
#
# Disc length: 3396 seconds
#
# Revision: 1
# Processed by: cddbd v1.5.2PL0 Copyright (c) Steve Scherf et al.
# Submitted via: audiograbber 1.83.01
#
DISCID=c00d420c
DTITLE=Grateful Dead - 70-11-08A Capitol Theatre, Port Chester NY
DYEAR=1900
DGENRE=Rock
TTITLE0=NRPS Six Days On The Road
TTITLE1=NRPS Superman
TTITLE2=NRPS Whatcha Gonna Do
TTITLE3=NRPS Glendale Train
TTITLE4=NRPS All I Ever Wanted
TTITLE5=NRPS Fair Chance To Know
TTITLE6=NRPS Portland Woman
TTITLE7=NRPS Cecilia
TTITLE8=NRPS Truck Driving Man
TTITLE9=NRPS Last Lonely Eagle
TTITLE10=NRPS Louisiana Lady
TTITLE11=NRPS Honky Tonk Women
EXTD=
EXTT0=
EXTT1=
EXTT2=
EXTT3=
EXTT4=
EXTT5=
EXTT6=
EXTT7=
EXTT8=
EXTT9=
EXTT10=
EXTT11=
PLAYORDER=
